<?xml version="1.0" encoding="utf-8"?>
<!-- Generator: Adobe Illustrator 17.0.0, SVG Export Plug-In . SVG Version: 6.00 Build 0)  -->
<!DOCTYPE svg PUBLIC "-//W3C//DTD SVG 1.1//EN" "http://www.w3.org/Graphics/SVG/1.1/DTD/svg11.dtd">
<svg version="1.1" id="Layer_1" xmlns="http://www.w3.org/2000/svg" xmlns:xlink="http://www.w3.org/1999/xlink" x="0px" y="0px"
	 width="100px" height="100px" viewBox="0 0 100 100" enable-background="new 0 0 100 100" xml:space="preserve">
<g>
	<path fill="#FDFDFD" d="M50.1,100.1c-16.517,0-33.033-0.001-49.55,0.009c-0.375,0-0.459-0.084-0.459-0.459
		c0.01-33.033,0.01-66.067,0-99.1c0-0.375,0.084-0.459,0.459-0.459c33.033,0.01,66.067,0.01,99.1,0c0.375,0,0.459,0.084,0.459,0.459
		c-0.01,33.033-0.01,66.067,0,99.1c0,0.375-0.084,0.46-0.459,0.459C83.133,100.099,66.617,100.1,50.1,100.1z"/>
	<path fill="#151515" d="M36.29,27.633c-1.302-0.767-2.66-1.428-4.058-1.991c-1.762-0.71-3.57-1.259-5.514-1.146
		c-0.379,0.022-0.575,0.189-0.697,0.518c-1.236,3.345-1.551,6.755-0.73,10.246c0.023,0.097,0.029,0.205,0.078,0.288
		c0.424,0.724,0.185,1.255-0.334,1.872c-2.398,2.85-3.693,6.164-3.927,9.884c-0.195,3.092,0.057,6.154,0.798,9.159
		c0.709,2.877,1.938,5.513,3.91,7.765c0.041,0.047,0.058,0.114,0.086,0.172c0.012,0.295,0.235,0.464,0.414,0.644
		c0.735,0.74,1.553,1.372,2.393,1.996c0.886,0.659,1.825,1.197,2.803,1.66c0.845,0.401,1.711,0.776,2.625,1.037
		c0.599,0.171,1.183,0.395,1.795,0.542c1.001,0.241,2.013,0.435,3.009,0.684c0.492,0.123,0.972,0.172,1.47,0.198
		c0.481,0.024,0.637,0.375,0.328,0.755c-0.948,1.164-1.399,2.551-1.832,3.95c-0.02,0.064-0.003-0.018-0.018,0.047
		c-0.08,0.346,0.101,0.794-0.263,1.022c-0.501,0.314-1.104,0.411-1.644,0.63c-0.685,0.278-1.402,0.28-2.095,0.42
		c-0.751,0.151-1.547,0.151-2.318-0.027c-0.12-0.028-0.229-0.088-0.357-0.095c-0.926-0.053-1.783-0.382-2.576-0.809
		c-0.957-0.516-1.781-1.203-2.504-2.059c-0.783-0.927-1.283-2.035-2.075-2.938c-0.955-1.089-1.977-2.108-3.325-2.72
		c-0.532-0.242-1.091-0.427-1.628-0.641c-0.633-0.252-1.248-0.193-1.872-0.262c-0.706-0.079-1.218,0.309-1.717,0.723
		c-0.274,0.228-0.298,0.454-0.088,0.772c0.626,0.944,1.522,1.565,2.453,2.156c0.826,0.525,1.462,1.253,2.064,2.006
		c0.941,1.177,1.592,2.534,2.221,3.884c0.302,0.649,0.594,1.293,0.994,1.883c0.766,1.129,1.78,1.991,2.943,2.692
		c0.846,0.51,1.756,0.831,2.687,1.158c0.817,0.286,1.649,0.211,2.446,0.436c0.629,0.178,1.271,0.251,1.92,0.207
		c0.959-0.064,1.91-0.213,2.858-0.366c0.412-0.066,0.825,0.001,1.239-0.089c0.231-0.05,0.296,0.178,0.298,0.405
		c0.004,0.492,0.001,0.983,0.001,1.475c0.001,2.072-0.001,4.144,0.002,6.216c0.001,0.627-0.162,1.252-0.736,1.506
		c-0.582,0.257-1.188,0.47-1.931,0.227c-0.713-0.232-1.444-0.45-2.152-0.702c-0.607-0.216-1.208-0.475-1.802-0.74
		c-1.92-0.855-3.793-1.799-5.581-2.904c-1.395-0.862-2.744-1.789-4.047-2.792c-1.429-1.1-2.797-2.268-4.077-3.529
		c-1.439-1.418-2.792-2.917-4.011-4.541c-0.797-1.061-1.613-2.108-2.299-3.24c-0.846-1.396-1.703-2.787-2.431-4.257
		c-0.695-1.406-1.286-2.853-1.853-4.306c-0.361-0.924-0.679-1.879-0.931-2.856c-0.164-0.632-0.241-1.322-0.574-1.929
		c-0.192-0.35-0.16-0.798-0.246-1.199c-0.204-0.95-0.362-1.914-0.535-2.872c-0.06-0.334-0.116-0.669-0.105-1.004
		c0.014-0.432,0.021-0.848-0.169-1.259c-0.116-0.25-0.12-0.544-0.127-0.83c-0.014-0.556,0.045-1.107,0.042-1.663
		c-0.004-0.81-0.275-1.582-0.259-2.403c0.013-0.659,0.308-1.257,0.268-1.922c-0.014-0.234-0.015-0.476-0.032-0.717
		c-0.043-0.637-0.022-1.273,0.22-1.878c0.047-0.117,0.079-0.239,0.061-0.352c-0.129-0.806,0.142-1.58,0.247-2.355
		c0.138-1.015,0.211-2.083,0.607-3.022c0.278-0.66,0.209-1.383,0.595-2.024c0.187-0.31,0.199-0.811,0.33-1.217
		c0.487-1.512,1.065-2.989,1.703-4.444c0.091-0.207,0.267-0.42,0.123-0.678c0.728-1.683,1.64-3.266,2.606-4.821
		c2.472-3.979,5.529-7.456,9.081-10.5c1.745-1.496,3.614-2.828,5.566-4.046c2.903-1.812,5.983-3.254,9.211-4.364
		c2.898-0.996,5.875-1.682,8.921-2.075c2.767-0.356,5.544-0.519,8.322-0.346c2.454,0.153,4.895,0.466,7.31,0.991
		c4.008,0.87,7.829,2.231,11.461,4.123c5.967,3.108,11.013,7.321,15.122,12.654c1.415,1.837,2.674,3.773,3.803,5.796
		c0.031,0.056,0.043,0.123,0.064,0.185c-0.062,0.201-0.049,0.378,0.09,0.56c0.313,0.41,0.491,0.891,0.687,1.366
		c0.23,0.556,0.457,1.123,0.759,1.64c0.407,0.697,0.548,1.486,0.876,2.206c0.457,1.004,0.683,2.085,1.058,3.116
		c0.13,0.357,0.216,0.75,0.287,1.122c0.137,0.71,0.392,1.386,0.521,2.095c0.148,0.813,0.226,1.648,0.411,2.441
		c0.167,0.717-0.045,1.475,0.321,2.158c0.083,0.154,0.016,0.396,0.011,0.598c-0.04,1.74,0.385,3.469,0.196,5.207
		c-0.121,1.109-0.108,2.225-0.227,3.326c-0.114,1.054-0.175,2.128-0.395,3.159c-0.182,0.851-0.134,1.769-0.6,2.555
		c-0.017,0.028-0.042,0.06-0.042,0.09c0.002,0.583-0.229,1.104-0.374,1.652c-0.137,0.517-0.258,1.051-0.405,1.573
		c-0.223,0.791-0.443,1.588-0.831,2.317c-0.123,0.231-0.107,0.479-0.207,0.71c-1.069,2.483-2.267,4.895-3.698,7.195
		c-0.884,1.422-1.829,2.8-2.872,4.103c-1.299,1.623-2.654,3.204-4.199,4.61c-1.444,1.314-2.899,2.609-4.488,3.754
		c-1.475,1.063-3.002,2.034-4.569,2.953c-0.919,0.539-1.869,1.017-2.818,1.492c-0.807,0.404-1.677,0.69-2.498,1.068
		c-0.948,0.437-1.95,0.696-2.921,1.056c-0.223,0.083-0.463,0.047-0.694,0.037c-1.191-0.054-1.948-0.849-1.948-2.04
		c-0.001-4.566-0.013-9.131,0.014-13.697c0.004-0.649-0.026-1.331-0.198-1.9c-0.476-1.571-0.93-3.188-2.106-4.443
		c-0.107-0.115-0.216-0.258-0.13-0.442c0.078-0.166,0.233-0.176,0.384-0.171c1.136,0.036,2.186-0.403,3.282-0.593
		c0.781-0.135,1.565-0.279,2.315-0.527c0.572-0.189,1.16-0.331,1.717-0.586c0.662-0.303,1.355-0.538,2.014-0.855
		c1.779-0.857,3.381-1.96,4.8-3.335c1.01-0.979,1.883-2.074,2.588-3.281c0.647-1.106,1.247-2.242,1.649-3.477
		c0.188-0.577,0.257-1.197,0.623-1.73c0.163-0.237,0.164-0.628,0.19-0.922c0.05-0.551,0.205-1.08,0.289-1.617
		c0.128-0.815,0.033-1.666,0.377-2.452c0.13-0.297,0.009-0.629,0.003-0.945c-0.024-1.249-0.019-2.499-0.002-3.749
		c0.003-0.237,0.026-0.449-0.14-0.653c-0.12-0.148-0.063-0.354-0.067-0.535c-0.018-0.83-0.264-1.61-0.507-2.392
		c-0.119-0.385-0.241-0.765-0.385-1.143c-0.744-1.954-1.761-3.738-3.158-5.298c-0.283-0.317-0.433-0.597-0.167-1.042
		c0.237-0.398,0.136-0.919,0.303-1.367c0.217-0.585,0.069-1.261,0.265-1.807c0.241-0.675,0.286-1.354,0.166-1.975
		c-0.162-0.839-0.167-1.695-0.371-2.53c-0.112-0.458-0.243-0.926-0.269-1.419c-0.028-0.549-0.352-1.037-0.527-1.559
		c-0.035-0.103-0.118-0.192-0.153-0.307c-0.23-0.753-0.302-0.806-1.098-0.805c-0.43,0-0.859-0.006-1.289,0.007
		c-0.109,0.003-0.232-0.03-0.326,0.016c-0.801,0.393-1.708,0.374-2.541,0.699c-1.527,0.594-3.033,1.216-4.461,2.024
		c-0.125,0.071-0.256,0.129-0.346,0.247c-0.816,0.385-1.584,0.859-2.315,1.379c-0.438,0.312-0.889,0.32-1.324,0.189
		c-0.608-0.183-1.272-0.171-1.835-0.394c-0.994-0.394-2.092-0.176-3.052-0.641c-0.045-0.022-0.098-0.025-0.147-0.022
		c-1.21,0.096-2.387-0.262-3.602-0.223c-1.773,0.057-3.563-0.111-5.319,0.075c-0.935,0.099-1.907-0.028-2.831,0.303
		c-0.392,0.14-0.851,0.149-1.266,0.184c-0.819,0.071-1.561,0.455-2.384,0.472c-0.329,0.007-0.609,0.243-0.946,0.287
		c-0.678,0.088-1.24-0.142-1.767-0.543c-0.321-0.244-0.665-0.46-1.032-0.634C36.544,27.618,36.425,27.567,36.29,27.633z"/>
	<path fill="#131313" d="M8.848,32.091c0.236-0.043,0.316,0.035,0.22,0.269c-0.405,0.983-0.848,1.95-1.197,2.957
		c-0.352,1.015-0.711,2.023-1.015,3.056c-0.27,0.916-0.482,1.845-0.736,2.763c-0.259,0.937-0.362,1.911-0.537,2.867
		c-0.182,0.994-0.133,2.017-0.426,2.994c-0.101,0.338-0.089,0.699-0.029,1.043c0.115,0.657,0.021,1.282-0.16,1.917
		c-0.156,0.549-0.161,1.152-0.03,1.685c0.232,0.94,0.221,1.869,0.165,2.814c-0.028,0.47,0.016,0.931,0.223,1.367
		c0.048,0.101,0.073,0.227,0.067,0.339c-0.064,1.224,0.208,2.419,0.453,3.592c0.277,1.327,0.592,2.654,0.981,3.964
		c0.506,1.708,1.115,3.371,1.795,5.007c0.727,1.748,1.591,3.429,2.581,5.053c0.761,1.25,1.543,2.481,2.39,3.673
		c1.031,1.451,2.216,2.77,3.388,4.107c1.137,1.297,2.412,2.442,3.713,3.547c2.244,1.906,4.652,3.586,7.251,5.001
		c1.315,0.716,2.642,1.397,4.013,1.987c1.261,0.542,2.536,1.042,3.859,1.444c0.692,0.21,1.245,0.037,1.815-0.118
		c0.538-0.147,0.754-0.704,0.758-1.242c0.019-2.566,0.007-5.132,0.011-7.698c0-0.283-0.071-0.434-0.404-0.396
		c-0.97,0.111-1.943,0.196-2.911,0.336c-0.872,0.126-1.747,0.167-2.623-0.057c-0.479-0.123-0.983-0.149-1.476-0.212
		c-1.936-0.247-3.611-1.12-5.111-2.293c-1.252-0.979-2.214-2.211-2.824-3.73c-0.869-2.163-2.06-4.143-3.855-5.684
		c-0.488-0.419-1.078-0.717-1.609-1.089c-0.537-0.377-0.973-0.853-1.327-1.409c-0.203-0.319-0.19-0.597,0.094-0.845
		c0.53-0.462,1.066-0.808,1.846-0.821c1.851-0.031,3.401,0.65,4.86,1.707c1.547,1.12,2.596,2.631,3.63,4.197
		c1.047,1.587,2.479,2.724,4.378,3.25c0.966,0.268,1.918,0.511,2.916,0.458c0.868-0.046,1.725-0.159,2.573-0.413
		c0.536-0.16,1.079-0.308,1.615-0.479c0.283-0.09,0.472-0.24,0.514-0.54c0.215-1.541,0.748-2.954,1.68-4.209
		c0.05-0.067,0.094-0.137,0.138-0.209c0.312-0.514,0.199-0.73-0.405-0.738c-0.788-0.01-1.525-0.272-2.286-0.423
		c-0.87-0.172-1.72-0.405-2.576-0.63c-1.027-0.27-2.012-0.639-2.984-1.051c-1.259-0.533-2.433-1.212-3.562-1.991
		c-0.963-0.664-1.853-1.4-2.656-2.242c-0.133-0.139-0.436-0.298-0.134-0.566c0.033,0.037,0.066,0.074,0.099,0.111
		c0.298,0.361,0.628,0.691,0.989,0.99c0.303,0.266,0.607,0.531,0.91,0.797c0.339,0.306,0.74,0.527,1.1,0.803
		c0.979,0.662,2.011,1.228,3.098,1.691c0.598,0.257,1.183,0.549,1.825,0.692l-0.015-0.009c0.385,0.215,0.817,0.288,1.232,0.414
		c0.243,0.111,0.494,0.19,0.762,0.212c1.041,0.291,2.094,0.508,3.165,0.678c0.714,0.113,1.433,0.206,2.144,0.339
		c0.103,0.019,0.292-0.041,0.288,0.177c-0.71,0.734-1.289,1.557-1.686,2.503c-0.335,0.672-0.605,1.366-0.704,2.116l0.005-0.01
		c-0.235,0.328-0.088,0.731-0.214,1.08c-0.524,0.383-1.131,0.567-1.748,0.726c-0.655,0.171-1.323,0.335-1.987,0.402
		c-1.031,0.104-2.075,0.172-3.113-0.08c-0.464-0.113-0.931-0.225-1.4-0.321c-1.368-0.483-2.507-1.298-3.461-2.381
		c-0.255-0.355-0.505-0.715-0.823-1.019c-0.579-0.805-1.015-1.72-1.695-2.442c-0.916-0.974-1.868-1.929-3.155-2.436
		c-0.045-0.018-0.082-0.052-0.123-0.079c-0.686-0.452-1.468-0.597-2.262-0.7c-0.162-0.021-0.33,0.017-0.489-0.047l0.015,0
		c-0.508,0.089-1.043-0.009-1.529,0.235c-0.089,0.045-0.179,0.069-0.225,0.166l0.003-0.003c-0.486,0.379-0.508,0.649-0.096,1.191
		l-0.005-0.006c0.207,0.324,0.493,0.571,0.786,0.811c0.602,0.431,1.204,0.863,1.807,1.294c0.504,0.433,0.975,0.899,1.405,1.406
		c0.98,1.139,1.685,2.445,2.296,3.806c0.245,0.575,0.423,1.182,0.802,1.694c1.218,2.003,3.004,3.3,5.158,4.135
		c0.105,0.041,0.225,0.042,0.339,0.061c0.771,0.306,1.583,0.434,2.397,0.554c1.657,0.243,3.315,0.167,4.96-0.069
		c0.545-0.078,1.114-0.088,1.638-0.302c0.103-0.077,0.206-0.144,0.314-0.006c0.056,0.091,0.041,0.193,0.041,0.292
		c0.001,2.76,0.001,5.519,0,8.279c0,0.114,0.024,0.234-0.048,0.339c-0.095,0.204-0.191,0.408-0.286,0.613
		c-0.711,0.845-2,1.147-3.007,0.67c-0.275-0.13-0.554-0.195-0.842-0.255c-0.984-0.316-1.937-0.71-2.87-1.153
		c-0.508-0.323-1.073-0.523-1.626-0.747c-0.192-0.091-0.384-0.182-0.576-0.273c-0.474-0.348-0.99-0.616-1.538-0.825
		c-0.321-0.186-0.641-0.371-0.962-0.557c-0.37-0.32-0.797-0.544-1.239-0.745c-1.212-0.74-2.347-1.585-3.482-2.438
		c-0.88-0.661-1.737-1.351-2.552-2.081c-1.173-1.051-2.298-2.154-3.356-3.332c-1.134-1.263-2.186-2.586-3.213-3.931
		c-0.647-0.847-1.213-1.754-1.759-2.672c-0.239-0.384-0.369-0.835-0.72-1.148c-0.194-0.357-0.388-0.713-0.582-1.07
		c-0.129-0.372-0.31-0.716-0.543-1.033c-0.257-0.516-0.597-0.992-0.756-1.556c-0.255-0.736-0.601-1.434-0.912-2.146l0.008,0.017
		c-0.313-0.689-0.446-1.446-0.807-2.116l0.008,0.013c-0.229-0.743-0.392-1.508-0.742-2.211c-0.137-0.197,0.018-0.462-0.152-0.652
		c-0.135-0.584-0.192-1.187-0.415-1.75l0.008,0.013c-0.272-1.232-0.423-2.486-0.704-3.716l0.009,0.011
		c-0.55-4.242-0.55-8.485,0.001-12.727l-0.007,0.011c0.245-0.689,0.238-1.425,0.39-2.132c0.231-1.077,0.511-2.143,0.718-3.224
		c0.165-0.189,0.017-0.45,0.148-0.647c0.233-0.161,0.191-0.436,0.259-0.66c0.342-1.129,0.72-2.244,1.176-3.332
		c0.059-0.141,0.042-0.293,0.115-0.424C8.184,33.537,8.479,32.798,8.848,32.091z"/>
	<path fill="#131313" d="M64.5,27.199c0.249-0.488,0.766-0.63,1.193-0.845c1.348-0.68,2.729-1.308,4.176-1.741
		c1.304-0.39,2.643-0.637,4.022-0.509c0.339,0.031,0.59,0.222,0.689,0.506c0.298,0.856,0.656,1.682,0.864,2.582
		c0.257,1.113,0.298,2.253,0.58,3.363c0.181,0.712,0.247,1.513-0.151,2.241c-0.081,0.148-0.067,0.356-0.07,0.537
		c-0.017,1.006-0.31,1.957-0.601,2.903c-0.09,0.293-0.015,0.489,0.167,0.674c1.139,1.153,1.94,2.545,2.642,3.974
		c0.603,1.227,1.046,2.528,1.34,3.887c0.138,0.638-0.03,1.344,0.385,1.932c0.066,0.094-0.024,0.29-0.022,0.438
		c0.015,1.364-0.095,2.731,0.062,4.093c0.008,0.066,0.035,0.145,0.01,0.197c-0.354,0.723-0.206,1.534-0.406,2.285
		c-0.149,0.559-0.138,1.143-0.252,1.715c-0.311,1.552-0.806,3.038-1.43,4.481c-0.421,0.975-0.967,1.889-1.546,2.786
		c-0.979,1.516-2.239,2.759-3.627,3.879c-1.552,1.253-3.297,2.176-5.152,2.905c-1.267,0.498-2.562,0.871-3.897,1.156
		c-0.902,0.193-1.823,0.326-2.708,0.607c-0.307,0.098-0.629,0.039-0.944,0.058c-0.112,0.007-0.25-0.023-0.309,0.109
		c-0.049,0.109,0.049,0.18,0.107,0.259c0.89,1.218,1.56,2.525,1.931,4.012c0.209,0.841,0.351,1.664,0.35,2.521
		c-0.001,4.482,0.007,8.965-0.011,13.447c-0.002,0.496,0.148,0.915,0.379,1.319c0.278,0.488,1.351,0.864,1.96,0.694
		c1.651-0.46,3.227-1.122,4.789-1.814c1.717-0.761,3.375-1.637,4.974-2.624c1.785-1.101,3.507-2.288,5.117-3.64
		c1.223-1.027,2.45-2.055,3.546-3.212c2.2-2.322,4.216-4.794,5.91-7.523c0.958-1.544,1.821-3.136,2.614-4.764
		c0.537-1.102,0.986-2.248,1.412-3.404c0.385-1.044,0.771-2.092,1.032-3.166c0.171-0.702,0.471-1.372,0.52-2.118
		c0.028-0.422,0.266-0.842,0.334-1.287c0.098-0.644,0.187-1.291,0.331-1.926c0.195-0.858,0.068-1.755,0.352-2.598
		c0.021-0.062,0.035-0.131,0.032-0.196c-0.085-1.814,0.417-3.616,0.183-5.42c-0.144-1.114-0.035-2.24-0.211-3.328
		c-0.195-1.204-0.295-2.42-0.505-3.623c-0.173-0.992-0.403-1.973-0.648-2.938c-0.287-1.131-0.554-2.279-0.995-3.374
		c-0.44-1.092-0.744-2.239-1.267-3.298c-0.535-1.083-0.888-2.256-1.591-3.257c-0.056-0.08-0.086-0.18-0.119-0.274
		c-0.032-0.089-0.112-0.208,0.003-0.262c0.066-0.031,0.181,0.042,0.274,0.068c0,0-0.005-0.005-0.005-0.005
		c0.209,0.486,0.443,0.96,0.718,1.413l-0.012-0.022c0.204,0.407,0.395,0.82,0.596,1.228c0.129,0.3,0.258,0.6,0.387,0.9
		c0.261,0.557,0.437,1.15,0.713,1.701c0.129,0.339,0.258,0.678,0.387,1.016c0.146,0.391,0.228,0.804,0.409,1.183
		c0.097,0.335,0.194,0.669,0.291,1.004c0.165,0.458,0.244,0.941,0.414,1.398c0.062,0.236,0.124,0.472,0.186,0.708
		c0.283,1.316,0.561,2.633,0.781,3.961c0.096,0.582,0.146,1.173,0.217,1.76c0.02,0.162,0.007,0.33,0.113,0.471l0.014,0.023
		l-0.02,0.018c0.106,0.356,0.061,0.728,0.074,1.088c0.046,1.291,0.229,2.577,0.17,3.872c-0.064,1.404-0.135,2.809-0.241,4.211
		l0.009-0.013c-0.196,0.817-0.205,1.661-0.357,2.485c-0.203,1.102-0.369,2.21-0.666,3.292c-0.058,0.211,0,0.432-0.085,0.635
		l0.007-0.011c-0.228,0.446-0.287,0.939-0.4,1.417l0.009-0.019c-0.437,1.305-0.868,2.612-1.313,3.914l0.006-0.012
		C92.39,67.829,92.282,68.446,92,68.99c-0.965,2.194-2.078,4.309-3.382,6.321c-0.663,1.024-1.336,2.042-2.11,2.988
		c-0.219,0.316-0.467,0.609-0.708,0.908c-0.551,0.736-1.157,1.427-1.792,2.092c-0.262,0.369-0.648,0.627-0.908,0.998
		c-2.117,2.198-4.436,4.162-6.94,5.902c-1.318,0.916-2.708,1.724-4.106,2.513c-0.47,0.195-0.922,0.426-1.355,0.693
		c-0.257,0.135-0.515,0.27-0.772,0.405c-0.698,0.249-1.366,0.563-2.024,0.901l0.008-0.004c-0.907,0.324-1.824,0.624-2.705,1.018
		l0.015-0.009c-0.815,0.291-1.639,0.313-2.473,0.093c-0.352-0.188-0.703-0.375-0.858-0.78c-0.278-0.57-0.301-1.181-0.291-1.798
		c0.064-4.046,0.041-8.092,0.054-12.139c0.005-1.452-0.228-2.861-0.648-4.244c-0.048-0.158-0.118-0.311-0.214-0.449l-0.016-0.02
		l0.016-0.02c-0.132-0.409-0.257-0.821-0.549-1.153c-0.358-0.692-0.891-1.256-1.362-1.866c-0.047-0.196,0.091-0.218,0.227-0.236
		c0.782-0.101,1.558-0.243,2.338-0.355c0.844-0.121,1.678-0.299,2.501-0.516c0.184-0.048,0.394-0.02,0.558-0.145
		c0.207-0.098,0.408-0.217,0.651-0.196c0.42-0.117,0.846-0.212,1.24-0.407l-0.012,0.006c0.381-0.103,0.769-0.187,1.116-0.389
		c1.573-0.685,3.104-1.439,4.489-2.473c0.95-0.709,1.805-1.512,2.595-2.385c0.677-0.748,1.217-1.603,1.761-2.45
		c0.501-0.675,0.826-1.44,1.142-2.21l-0.007,0.013c0.196-0.46,0.442-0.901,0.515-1.406c0.16-0.173,0.024-0.423,0.157-0.603
		c0.296-0.422,0.331-0.924,0.433-1.405l-0.008,0.017c0.2-0.609,0.317-1.241,0.416-1.868c0.321-2.025,0.46-4.064,0.411-6.117
		c-0.034-1.43-0.19-2.836-0.621-4.205c-0.073-0.233-0.013-0.503-0.198-0.705l0.005,0.009c-0.245-0.99-0.618-1.927-1.146-2.801
		c-0.658-1.246-1.451-2.401-2.356-3.48c-0.306-0.362-0.365-0.746-0.103-1.157c0.084-0.131,0.044-0.289,0.105-0.424l-0.014-0.025
		l0.016-0.024c0.292-0.795,0.377-1.623,0.473-2.46c0.147-1.282,0.062-2.552-0.08-3.818c-0.069-0.614-0.141-1.244-0.392-1.826
		c-0.021-0.016-0.022-0.034-0.004-0.053c-0.077-0.464-0.216-0.91-0.399-1.343l0.003,0.007c-0.027-0.35-0.179-0.666-0.302-0.985
		c-0.111-0.286-0.31-0.458-0.672-0.487c-1.119-0.088-2.185,0.122-3.265,0.382c-0.711,0.171-1.392,0.388-2.055,0.683
		c-1.196,0.516-2.413,0.988-3.526,1.68c-0.062,0.038-0.158,0.022-0.238,0.03C64.585,27.253,64.54,27.249,64.5,27.199z"/>
	<path fill="#121212" d="M64.5,27.199c0.045,0.005,0.09,0.009,0.136,0.014c-0.794,0.632-1.732,1.038-2.555,1.626
		c-0.08,0.057-0.158,0.116-0.237,0.175c-0.173,0.061-0.338,0.093-0.53,0.043c-1.175-0.306-2.355-0.593-3.562-0.749l-0.024,0.015
		l-0.024-0.016c-0.916-0.217-1.848-0.351-2.781-0.451c-2.048-0.22-4.106-0.239-6.163-0.204c-2.007,0.034-3.996,0.273-5.977,0.585
		c-0.067,0.01-0.129,0.026-0.179,0.076l0.01-0.005c-1.195,0.165-2.366,0.44-3.529,0.751c-0.194,0.052-0.36,0.006-0.535-0.045
		c-0.753-0.461-1.506-0.921-2.258-1.382c-0.006-0.169-0.205-0.208-0.26-0.405c0.451,0.058,0.754,0.359,1.107,0.541
		c0.368,0.19,0.714,0.426,1.054,0.665c0.499,0.351,1.021,0.32,1.57,0.162c0.89-0.256,1.809-0.39,2.706-0.61
		c1.324-0.325,2.694-0.278,4.021-0.56c0.16-0.034,0.331-0.025,0.497-0.025c1.544-0.002,3.091,0.05,4.632-0.016
		c1.402-0.061,2.794,0.089,4.162,0.268c1.046,0.137,2.121,0.229,3.158,0.577c0.688,0.231,1.457,0.282,2.182,0.462
		c0.369,0.092,0.708,0.004,1.038-0.218c0.565-0.38,1.161-0.713,1.739-1.074C64.083,27.283,64.273,27.19,64.5,27.199z"/>
	<path fill="#151515" d="M60.792,74.398c0.355,0.229,0.356,0.643,0.441,0.976c0.25,0.976,0.475,1.96,0.472,2.983
		c-0.011,3.982-0.008,7.965-0.002,11.947c0.001,0.911-0.095,1.831,0.188,2.724c-0.329-0.457-0.365-0.987-0.362-1.521
		c0.023-3.559,0.03-7.118,0.082-10.676C61.642,78.644,61.514,76.486,60.792,74.398z"/>
	<path fill="#151515" d="M42.603,28.313c0.146-0.157,0.337-0.192,0.541-0.216c1.119-0.129,2.24-0.241,3.354-0.404
		c1.16-0.17,2.322-0.051,3.482-0.095c1.811-0.069,3.622,0.002,5.413,0.237c0.768,0.101,1.603,0.023,2.311,0.472
		c-0.84-0.106-1.679-0.223-2.52-0.316c-2.868-0.316-5.737-0.391-8.619-0.131C45.238,27.981,43.929,28.216,42.603,28.313z"/>
	<path fill="#151515" d="M78.587,43.303c0.325,0.313,0.319,0.762,0.408,1.149c0.287,1.244,0.492,2.5,0.52,3.79
		c0.045,2.07-0.127,4.12-0.455,6.154c-0.097,0.6-0.131,1.254-0.482,1.802c0.186-1.181,0.461-2.348,0.566-3.54
		c0.232-2.625,0.347-5.25-0.193-7.856C78.846,44.298,78.709,43.802,78.587,43.303z"/>
	<path fill="#151515" d="M5.092,44.687c0.058,1.301-0.191,2.581-0.274,3.873c-0.108,1.682-0.056,3.351,0.012,5.03
		c0.052,1.279,0.324,2.54,0.26,3.824c-0.51-2.724-0.52-5.477-0.441-8.232C4.693,47.676,4.775,46.169,5.092,44.687z"/>
	<path fill="#161616" d="M30.696,79.794c-0.553,0.002-0.934-0.172-1.144-0.606c-0.105-0.218-0.025-0.438,0.187-0.563
		c0.424-0.25,0.836-0.157,1.214,0.109c0.219,0.154,0.446,0.347,0.338,0.655C31.185,79.688,30.935,79.818,30.696,79.794z"/>
	<path fill="#161616" d="M37.526,79.926c-0.366-0.018-0.717-0.08-0.813-0.46c-0.102-0.405,0.222-0.578,0.53-0.726
		c0.015-0.007,0.032-0.01,0.047-0.016c0.385-0.17,0.744-0.101,1.066,0.146c0.155,0.118,0.222,0.303,0.127,0.488
		C38.283,79.753,37.923,79.892,37.526,79.926z"/>
	<path fill="#161616" d="M34.135,79.103c0.489,0.009,0.908,0.29,0.907,0.608c-0.001,0.313-0.492,0.656-0.942,0.66
		c-0.437,0.004-0.893-0.318-0.9-0.635C33.192,79.393,33.634,79.094,34.135,79.103z"/>
	<path fill="#181818" d="M27.526,78.071c-0.483,0.005-1.056-0.512-1.084-0.996c-0.02-0.346,0.177-0.519,0.508-0.538
		c0.468-0.027,1.064,0.522,1.086,0.991C28.052,77.841,27.838,78.068,27.526,78.071z"/>
	<path fill="#151515" d="M95.509,55.614c-0.062-1.467,0.125-2.924,0.176-4.385c0.056-1.595-0.288-3.182-0.18-4.785
		c0.159,1.133,0.274,2.269,0.286,3.414C95.812,51.782,95.818,53.706,95.509,55.614z"/>
	<path fill="#151515" d="M25.642,74.997c-0.021,0.245-0.123,0.46-0.441,0.465c-0.412,0.006-0.903-0.55-0.882-0.994
		c0.015-0.311,0.162-0.505,0.495-0.494C25.198,73.986,25.652,74.536,25.642,74.997z"/>
	<path fill="#151515" d="M38.395,83.58c-0.486,0.35-1.088,0.301-1.623,0.379c-1.807,0.265-3.638,0.333-5.446,0.009
		c-0.65-0.117-1.354-0.15-1.927-0.57c2.057,0.594,4.16,0.697,6.278,0.532C36.587,83.859,37.489,83.699,38.395,83.58z"/>
	<path fill="#171717" d="M22.554,72.014c0.008-0.189,0.141-0.37,0.407-0.388c0.286-0.02,0.832,0.529,0.833,0.821
		c0.001,0.274-0.167,0.434-0.426,0.451C23.006,72.922,22.572,72.474,22.554,72.014z"/>
	<path fill="#151515" d="M75.094,27.299c0.422,0.49,0.394,1.138,0.468,1.699c0.211,1.596,0.213,3.217,0,4.813
		c-0.07,0.526-0.04,1.145-0.47,1.591c0.137-0.851,0.339-1.688,0.408-2.553c0.142-1.775,0.036-3.524-0.392-5.253
		C75.085,27.501,75.098,27.398,75.094,27.299z"/>
	<path fill="#151515" d="M68.4,25.503c0.47-0.406,1.072-0.504,1.638-0.671c0.954-0.281,1.937-0.414,2.926-0.515
		c1.153-0.118,1.688,0.365,1.731,1.592c-0.063-0.152-0.128-0.303-0.187-0.457c-0.38-0.974-0.501-1.065-1.525-0.993
		c-1.481,0.104-2.914,0.435-4.299,0.971C68.592,25.465,68.494,25.479,68.4,25.503z"/>
	<path fill="#151515" d="M30.651,77.709c0.49-0.047,0.943,0.154,1.409,0.241c1.135,0.211,2.245,0.2,3.381,0.003
		c0.563-0.098,1.122-0.298,1.71-0.244C34.985,78.399,32.818,78.531,30.651,77.709z"/>
	<path fill="#151515" d="M94.409,62.014c-0.104-0.545,0.128-1.047,0.226-1.56c0.275-1.428,0.598-2.846,0.675-4.305
		c0.011-0.202,0.071-0.391,0.206-0.548c-0.017,1.252-0.284,2.473-0.492,3.699C94.87,60.213,94.703,61.13,94.409,62.014z"/>
	<path fill="#151515" d="M95.511,46.403c-0.364-0.442-0.213-0.993-0.289-1.489c-0.192-1.265-0.475-2.51-0.703-3.767
		c-0.057-0.312-0.134-0.616-0.119-0.935C95.012,42.232,95.31,44.309,95.511,46.403z"/>
	<path fill="#151515" d="M64.504,70.086c-0.569,0.344-1.224,0.389-1.853,0.506c-1.102,0.204-2.212,0.369-3.318,0.555
		c-0.164,0.027-0.323,0.078-0.452,0.192c-0.319-0.216-0.19-0.308,0.099-0.331c1.174-0.093,2.327-0.323,3.485-0.519
		C63.149,70.373,63.801,70.102,64.504,70.086z"/>
	<path fill="#151515" d="M38.701,92.484c0.003-2.97,0.005-5.94,0.008-8.91c0.144,0.874,0.064,1.757,0.09,2.635
		c0.053,1.815,0.029,3.632,0.034,5.448C38.834,91.939,38.848,92.225,38.701,92.484z"/>
	<path fill="#151515" d="M41.498,71.294c-0.93-0.244-1.892-0.302-2.83-0.495c-0.933-0.192-1.897-0.259-2.768-0.698
		c0.695,0.138,1.391,0.268,2.084,0.415c1.051,0.224,2.108,0.401,3.178,0.504C41.518,71.055,41.516,71.073,41.498,71.294z"/>
	<path fill="#151515" d="M6.194,39.341c-0.003,0.835-0.286,1.621-0.456,2.424c-0.172,0.811-0.339,1.62-0.44,2.443
		c-0.023,0.187-0.071,0.357-0.212,0.49c0.131-1.326,0.409-2.625,0.713-3.919C5.912,40.295,6.061,39.82,6.194,39.341z"/>
	<path fill="#1A1A1A" d="M21.164,70.089c0.301,0.062,0.6,0.212,0.646,0.559c0.028,0.212-0.207,0.322-0.424,0.326
		c-0.324,0.006-0.738-0.344-0.699-0.589C20.727,70.136,20.921,70.092,21.164,70.089z"/>
	<path fill="#151515" d="M7.893,34.278c0.017,0.503-0.262,0.92-0.419,1.369c-0.3,0.86-0.606,1.717-0.857,2.592
		c-0.051,0.179-0.103,0.351-0.274,0.455C6.782,37.195,7.253,35.707,7.893,34.278z"/>
	<path fill="#151515" d="M38.548,29.015c1.053-0.068,2.039-0.458,3.071-0.632c0.331-0.056,0.658-0.098,0.993-0.075
		c-1.195,0.333-2.434,0.48-3.621,0.851C38.82,29.213,38.663,29.164,38.548,29.015z"/>
	<path fill="#151515" d="M57.75,28.308c0.961-0.054,1.857,0.283,2.775,0.475c0.438,0.092,0.872,0.19,1.318,0.23
		c-0.3,0.354-0.619,0.067-0.914,0.006C59.866,28.799,58.809,28.548,57.75,28.308z"/>
	<path fill="#151515" d="M92.712,67.317c-0.03-0.52,0.289-0.94,0.412-1.418c0.184-0.718,0.443-1.416,0.669-2.123
		c0.046-0.144,0.113-0.275,0.232-0.374C93.71,64.748,93.259,66.049,92.712,67.317z"/>
	<path fill="#151515" d="M34.565,93.511c0.287-0.025,0.543,0.049,0.816,0.157c1.121,0.443,2.146,0.275,3.033-0.571
		c-0.308,0.636-0.887,0.83-1.522,0.921C36.056,94.138,35.308,93.832,34.565,93.511z"/>
	<path fill="#151515" d="M5.082,57.403c0.144,0.13,0.195,0.299,0.214,0.487c0.085,0.858,0.255,1.7,0.449,2.539
		c0.051,0.221,0.029,0.46,0.04,0.69c-0.308-0.703-0.347-1.467-0.486-2.206C5.207,58.416,5.04,57.922,5.082,57.403z"/>
	<path fill="#151515" d="M77.445,40.512c0.526,0.522,0.663,1.242,0.946,1.886c0.125,0.285,0.248,0.585,0.201,0.914
		C78.248,42.363,77.867,41.429,77.445,40.512z"/>
	<path fill="#151515" d="M18.643,68.606c0.811-0.069,1.576,0.111,2.314,0.433c0.168,0.073,0.335,0.148,0.437,0.313
		C20.521,68.94,19.575,68.799,18.643,68.606z"/>
	<path fill="#151515" d="M65.206,93.725c0.291-0.34,0.732-0.357,1.11-0.499c0.522-0.196,1.016-0.494,1.594-0.519
		C67.031,93.104,66.142,93.475,65.206,93.725z"/>
	<path fill="#151515" d="M6.345,63.507c0.424,0.678,0.687,1.409,0.742,2.211C6.742,65.014,6.593,64.244,6.345,63.507z"/>
	<path fill="#151515" d="M77.487,59.582c-0.195,0.832-0.555,1.58-1.142,2.21C76.726,61.055,77.107,60.318,77.487,59.582z"/>
	<path fill="#151515" d="M62.748,93.808c0.831,0.139,1.653,0.054,2.473-0.093C64.412,94.136,63.587,94.16,62.748,93.808z"/>
	<path fill="#151515" d="M67.903,92.711c0.613-0.44,1.276-0.765,2.024-0.901C69.274,92.158,68.598,92.455,67.903,92.711z"/>
	<path fill="#151515" d="M7.078,65.705c0.472,0.628,0.591,1.39,0.807,2.116C7.513,67.155,7.291,66.432,7.078,65.705z"/>
	<path fill="#151515" d="M39.109,75.913c0.01-0.78,0.252-1.483,0.704-2.116C39.578,74.502,39.343,75.208,39.109,75.913z"/>
	<path fill="#151515" d="M7.877,67.804c0.418,0.667,0.752,1.369,0.912,2.146C8.433,69.257,8.092,68.557,7.877,67.804z"/>
	<path fill="#151515" d="M20.804,73.701c-0.51-0.427-0.98-0.894-1.405-1.406C19.995,72.635,20.446,73.121,20.804,73.701z"/>
	<path fill="#151515" d="M23.902,79.2c-0.466-0.471-0.681-1.06-0.802-1.694C23.368,78.071,23.635,78.636,23.902,79.2z"/>
	<path fill="#151515" d="M92,68.99c0.189-0.583,0.27-1.212,0.718-1.685C92.516,67.882,92.366,68.482,92,68.99z"/>
	<path fill="#151515" d="M33.922,69.483c-0.677-0.05-1.268-0.326-1.825-0.692C32.726,68.967,33.322,69.23,33.922,69.483z"/>
	<path fill="#151515" d="M92.713,34.903c-0.364-0.514-0.553-1.102-0.713-1.701C92.357,33.719,92.545,34.307,92.713,34.903z"/>
	<path fill="#151515" d="M16.903,69.006c0.276-0.389,0.689-0.406,1.108-0.406c0.215,0,0.431,0.003,0.646,0.005
		C18.076,68.755,17.455,68.73,16.903,69.006z"/>
	<path fill="#151515" d="M75.091,35.45c-0.027,0.527-0.34,1.054-0.002,1.581C74.361,36.504,74.93,35.977,75.091,35.45z"/>
	<path fill="#151515" d="M30.068,91.61c0.603,0.116,1.16,0.332,1.626,0.747C31.125,92.167,30.588,91.908,30.068,91.61z"/>
	<path fill="#151515" d="M5.778,61.106c0.332,0.537,0.37,1.144,0.415,1.75C6.016,62.282,5.819,61.712,5.778,61.106z"/>
	<path fill="#151515" d="M27.954,90.512c0.594,0.124,1.114,0.386,1.538,0.825C28.979,91.063,28.466,90.787,27.954,90.512z"/>
	<path fill="#151515" d="M70.699,91.404c0.372-0.387,0.843-0.58,1.355-0.693C71.627,90.99,71.191,91.251,70.699,91.404z"/>
	<path fill="#151515" d="M78.586,56.181c-0.018,0.507-0.023,1.019-0.433,1.405C78.297,57.118,78.442,56.65,78.586,56.181z"/>
	<path fill="#151515" d="M91.029,31.096c-0.367-0.406-0.599-0.88-0.718-1.413C90.601,30.128,90.874,30.582,91.029,31.096z"/>
	<path fill="#151515" d="M94.214,39.504c-0.23-0.439-0.394-0.897-0.414-1.398C94.059,38.536,94.157,39.014,94.214,39.504z"/>
	<path fill="#151515" d="M77.996,58.189c-0.007,0.529-0.201,0.989-0.515,1.406C77.584,59.102,77.803,58.65,77.996,58.189z"/>
	<path fill="#151515" d="M94.016,63.421c0.02-0.505,0.064-1.002,0.4-1.417C94.299,62.481,94.229,62.971,94.016,63.421z"/>
	<path fill="#151515" d="M26.989,65.5c-0.438-0.222-0.768-0.551-0.989-0.99C26.372,64.798,26.71,65.12,26.989,65.5z"/>
	<path fill="#151515" d="M16.811,70.195c-0.507-0.458-0.472-0.898,0.096-1.191C16.489,69.37,16.576,69.776,16.811,70.195z"/>
	<path fill="#151515" d="M91.612,32.302c-0.315-0.353-0.475-0.781-0.596-1.228C91.29,31.447,91.494,31.854,91.612,32.302z"/>
	<path fill="#151515" d="M28.999,67.1c-0.427-0.185-0.821-0.416-1.1-0.803C28.301,66.516,28.687,66.758,28.999,67.1z"/>
	<path fill="#151515" d="M83.1,82.296c0.184-0.441,0.561-0.706,0.908-0.998C83.785,81.703,83.443,82,83.1,82.296z"/>
	<path fill="#151515" d="M10.67,73.609c0.434,0.261,0.58,0.702,0.72,1.148C11.15,74.375,10.91,73.992,10.67,73.609z"/>
	<path fill="#151515" d="M25.753,89.211c0.492,0.116,0.922,0.336,1.239,0.745C26.558,89.743,26.14,89.503,25.753,89.211z"/>
	<path fill="#151515" d="M74.691,25.903c0.288,0.401,0.399,0.855,0.399,1.342C74.907,26.813,74.782,26.363,74.691,25.903z"/>
	<path fill="#151515" d="M93.509,37.102c-0.275-0.346-0.382-0.751-0.409-1.183C93.327,36.282,93.428,36.689,93.509,37.102z"/>
	<path fill="#151515" d="M26.367,74.309c0.391,0.246,0.657,0.592,0.823,1.019C26.862,75.032,26.614,74.671,26.367,74.309z"/>
	<path fill="#151515" d="M66.395,69.483c-0.355,0.313-0.797,0.361-1.24,0.407C65.545,69.683,65.964,69.563,66.395,69.483z"/>
	<path fill="#151515" d="M35.139,69.889c-0.442-0.044-0.884-0.09-1.232-0.414C34.335,69.561,34.75,69.686,35.139,69.889z"/>
	<path fill="#151515" d="M60.242,73.205c0.379,0.291,0.499,0.706,0.549,1.153C60.608,73.974,60.425,73.59,60.242,73.205z"/>
	<path fill="#151515" d="M9.545,71.506c0.333,0.265,0.493,0.62,0.543,1.033C9.881,72.209,9.674,71.878,9.545,71.506z"/>
	<path fill="#151515" d="M17.592,71c-0.371-0.165-0.649-0.42-0.786-0.811C17.068,70.459,17.33,70.73,17.592,71z"/>
	<path fill="#151515" d="M67.5,69.1c-0.312,0.301-0.704,0.374-1.116,0.389C66.744,69.325,67.104,69.16,67.5,69.1z"/>
	<path fill="#151515" d="M38.9,76.983c0.053-0.364-0.146-0.777,0.214-1.08C39.096,76.274,39.023,76.633,38.9,76.983z"/>
	<path fill="#151515" d="M85.8,79.206c0.158-0.364,0.406-0.657,0.708-0.908C86.381,78.685,86.107,78.958,85.8,79.206z"/>
</g>
</svg>
