<?xml version="1.0" encoding="utf-8"?>
<!-- Generator: Adobe Illustrator 17.0.0, SVG Export Plug-In . SVG Version: 6.00 Build 0)  -->
<!DOCTYPE svg PUBLIC "-//W3C//DTD SVG 1.1//EN" "http://www.w3.org/Graphics/SVG/1.1/DTD/svg11.dtd">
<svg version="1.1" id="Layer_1" xmlns="http://www.w3.org/2000/svg" xmlns:xlink="http://www.w3.org/1999/xlink" x="0px" y="0px"
	 width="100px" height="100px" viewBox="0 0 100 100" enable-background="new 0 0 100 100" xml:space="preserve">
<g>
	<path fill="#FEFEFE" d="M50.111,100.111c-16.5,0-33-0.002-49.5,0.01c-0.417,0-0.511-0.094-0.51-0.51c0.011-33,0.011-66,0-99
		c0-0.417,0.094-0.511,0.51-0.51c33,0.011,66,0.011,99,0c0.417,0,0.511,0.094,0.51,0.51c-0.011,33-0.011,66,0,99
		c0,0.417-0.094,0.511-0.51,0.51C83.111,100.109,66.611,100.111,50.111,100.111z"/>
	<path fill="#242424" d="M1.445,80.534c10.878,1.09,20.551-1.576,29.285-8.144c-1.203-0.065-2.262-0.151-3.296-0.376
		c-7.355-1.602-12.351-5.943-15.031-12.972c-0.201-0.526,0.112-0.407,0.384-0.365c2.376,0.363,4.746,0.337,7.107-0.119
		c0.341-0.066,0.676-0.162,1.166-0.282c-4.699-1.1-8.49-3.411-11.412-7.071c-2.917-3.653-4.328-7.84-4.321-12.607
		c2.767,1.49,5.648,2.31,8.878,2.478c-4.29-3.079-7.088-7.031-8.222-12.076c-1.131-5.032-0.358-9.791,2.168-14.328
		C18.856,27.3,32.414,34.224,48.967,35.365c-0.294-1.378-0.445-2.717-0.482-4.07c-0.059-2.196,0.237-4.343,0.904-6.435
		c0.942-2.952,2.491-5.55,4.649-7.774c2.076-2.139,4.504-3.744,7.304-4.789c2.454-0.916,4.987-1.355,7.601-1.259
		c3.797,0.14,7.288,1.257,10.447,3.384c1.108,0.746,2.144,1.58,3.055,2.56c0.214,0.23,0.434,0.28,0.735,0.217
		c3.969-0.837,7.728-2.231,11.269-4.213c0.228-0.127,0.514-0.444,0.719-0.264c0.203,0.177-0.062,0.506-0.157,0.753
		c-1.606,4.15-4.297,7.407-8.143,9.851c1.032,0.013,1.947-0.224,2.863-0.405c0.941-0.186,1.877-0.41,2.802-0.664
		c0.908-0.249,1.807-0.535,2.696-0.847c0.901-0.317,1.784-0.685,2.766-1.066c-0.643,1.028-1.33,1.924-2.038,2.803
		c-2.192,2.721-4.684,5.133-7.505,7.198c-0.248,0.182-0.315,0.369-0.301,0.648c0.11,2.164,0.03,4.324-0.143,6.482
		c-0.398,4.985-1.481,9.824-3.145,14.533c-1.508,4.266-3.488,8.306-5.929,12.116c-1.9,2.964-4.057,5.729-6.469,8.298
		c-2.617,2.787-5.493,5.274-8.636,7.442c-3.125,2.156-6.452,3.95-9.969,5.396c-4.558,1.874-9.285,3.094-14.166,3.704
		c-6.957,0.87-13.87,0.618-20.712-0.986c-5.159-1.209-10.046-3.121-14.669-5.707c-0.869-0.486-1.712-1.021-2.566-1.534
		C1.694,80.702,1.642,80.665,1.445,80.534z"/>
</g>
</svg>
